<svg xmlns="http://www.w3.org/2000/svg" viewBox="0 0 32 32">
  <defs>
    <linearGradient id="bg" x1="0%" y1="0%" x2="100%" y2="100%">
      <stop offset="0%" style="stop-color:#4f46e5"/>
      <stop offset="100%" style="stop-color:#7c3aed"/>
    </linearGradient>
  </defs>
  <rect width="32" height="32" rx="6" fill="url(#bg)"/>
  <path d="M8 10h2l1 2h10a1 1 0 0 1 .97 1.24l-1.5 6A1 1 0 0 1 20.5 20h-9a1 1 0 0 1-.97-.76l-1.5-6A1 1 0 0 1 10 12h1l-1-2z" fill="none" stroke="#fff" stroke-width="1.5" stroke-linecap="round" stroke-linejoin="round"/>
  <circle cx="13" cy="22" r="1.2" fill="#fff"/>
  <circle cx="19" cy="22" r="1.2" fill="#fff"/>
  <path d="M13 8.5a2.5 2.5 0 0 1 5 0" fill="none" stroke="#fff" stroke-width="1.5" stroke-linecap="round"/>
</svg>
